# xmcd
#
# Track frame offsets:
# 150
# 11864
# 44242
# 67237
# 90207
# 110223
# 130453
# 146073
# 165312
# 189070
# 205985
# 223766
# 242546
# 256789
# 275137
# 303929
#
# Disc length: 4234 seconds
#
#
# Revision: 0
# Processed by: cddbd v1.5.2PL0 Copyright (c) Steve Scherf et al.
# Submitted via: FreeRIP 2.96 
#
DISCID=f2108810
DTITLE=Various Artist - Fahrt ins Blaue - Relaxin' in the spirit of jazz
DYEAR=2016
DGENRE=Jazz
TTITLE0=Lacrima Christi - Nguyên Lê and Paolo Fresu
TTITLE1=Ironside - Lars Danielsson feat Jan Bang
TTITLE2=Shapes - Wolfgang Haffner
TTITLE3=Existence - Bugge Wesseltoft
TTITLE4=Bubbles - Jacob Karlzon 3
TTITLE5=Spam-Boo-Limbo - e.s.t. Esbjörn Svensson Trio
TTITLE6=Bei mir bist du schoen - Cæcilie Norby
TTITLE7=Ecstasy Of Gold - Oddjob
TTITLE8=Terlingua - Frank Woeste
TTITLE9=Give It All Your Heart - Viktoria Tolstoy feat Nils Landgren
TTITLE10=Here Comes The Rain Again - Ida Sand feat Jan Lundgren
TTITLE11=Gimme! Gimme! Gimme! (A man after midnight) - Nils Landgren
TTITLE12=Coffee And Tea - McJazz (directed by Annette Humpe and Anselm Kluge)
TTITLE13=Yelloworange - Roberto Di Gioia's Marsmobil feat Johannes Enders
TTITLE14=Song for E - Tonbruket
TTITLE15=Questions In A World Of Blue - Michael Wollny Trio
EXTD=
EXTT0=
EXTT1=
EXTT2=
EXTT3=
EXTT4=
EXTT5=
EXTT6=
EXTT7=
EXTT8=
EXTT9=
EXTT10=
EXTT11=
EXTT12=
EXTT13=
EXTT14=
EXTT15=
PLAYORDER=
